<svg width="14" height="22" viewBox="0 0 14 22" fill="none" xmlns="http://www.w3.org/2000/svg">
<mask id="mask0_504_6341" style="mask-type:luminance" maskUnits="userSpaceOnUse" x="0" y="0" width="14" height="22">
<path d="M14 0.818359H0V21.182H14V0.818359Z" fill="white"/>
</mask>
<g mask="url(#mask0_504_6341)">
<path fill-rule="evenodd" clip-rule="evenodd" d="M8.3262 2.41951C9.06635 2.41951 9.76058 2.51873 10.4034 2.70275C9.77406 1.23603 8.46741 0.818359 7.01321 0.818359C5.55615 0.818359 4.24721 1.23767 3.61932 2.71139C4.2574 2.5209 4.94866 2.41951 5.68629 2.41951H8.3262ZM5.51699 3.89205C2.00245 3.89205 0 6.6569 0 10.0675V13.571C0 13.9122 0.28491 14.1819 0.636364 14.1819H13.3636C13.7151 14.1819 14 13.9122 14 13.571V10.0675C14 6.6569 11.6715 3.89205 8.1569 3.89205H5.51699ZM6.99503 10.0978C8.22512 10.0978 9.2223 9.10065 9.2223 7.87056C9.2223 6.64047 8.22512 5.64329 6.99503 5.64329C5.76494 5.64329 4.76776 6.64047 4.76776 7.87056C4.76776 9.10065 5.76494 10.0978 6.99503 10.0978ZM0 16.2413C0 15.9003 0.28491 15.6238 0.636364 15.6238H13.3636C13.7151 15.6238 14 15.9003 14 16.2413V19.9466C14 20.6287 13.4302 21.1817 12.7273 21.1817H1.27273C0.569819 21.1817 0 20.6287 0 19.9466V16.2413Z" fill="currentcolor"/>
</g>
</svg>
