<svg width="24" height="24" viewBox="0 0 10 12" fill="none" xmlns="http://www.w3.org/2000/svg">
<path d="M5.26194 5.05282V5.62763C5.26194 5.8102 5.2984 5.96336 5.37037 6.08269C5.46963 6.24737 5.63256 6.34175 5.81757 6.34175C5.99882 6.34175 6.17894 6.25347 6.35287 6.07955L8.25141 4.181C8.66826 3.76415 8.66826 3.08589 8.25141 2.66904L6.35287 0.7705C6.17894 0.596485 5.99882 0.508301 5.81757 0.508301C5.54098 0.508301 5.26194 0.729155 5.26194 1.22241V1.74446C2.56651 1.90364 0.335117 3.97219 0.00348729 6.68044C-0.0150917 6.83169 0.0709123 6.97648 0.212653 7.03257C0.252777 7.04844 0.294558 7.05612 0.335815 7.05612C0.440311 7.05612 0.541667 7.00719 0.606213 6.919C1.49574 5.70361 2.92396 4.97798 4.42668 4.97798C4.7051 4.97798 4.98509 5.0031 5.26194 5.05282Z" fill="#E6DAFE"/>
<path d="M9.78687 5.41712C9.64513 5.36095 9.48341 5.4077 9.39331 5.53077C8.50387 6.74608 7.07565 7.47171 5.57293 7.47171C5.29451 7.47171 5.01452 7.44659 4.73766 7.39687V6.82205C4.73766 6.3288 4.45854 6.10794 4.18204 6.10794C4.00078 6.10794 3.82066 6.19621 3.64665 6.37023L1.74811 8.26868C1.33135 8.68553 1.33135 9.3638 1.74819 9.78073L3.64665 11.6792C3.82066 11.8532 4.00078 11.9414 4.18204 11.9414C4.45854 11.9414 4.73766 11.7205 4.73766 11.2273V10.7052C7.43318 10.546 9.66449 8.4775 9.99612 5.76933C10.0147 5.618 9.92869 5.4732 9.78687 5.41712Z" fill="#E6DAFE"/>
</svg>
