<svg width="10" height="12" viewBox="0 0 10 12" fill="none" xmlns="http://www.w3.org/2000/svg">
<path d="M5.26097 4.82821V5.40302C5.26097 5.58559 5.29743 5.73875 5.36939 5.85808C5.46865 6.02276 5.63159 6.11714 5.81659 6.11714C5.99785 6.11714 6.17797 6.02886 6.35189 5.85494L8.25044 3.95639C8.66729 3.53955 8.66729 2.86128 8.25044 2.44443L6.35189 0.54589C6.17797 0.371876 5.99785 0.283691 5.81659 0.283691C5.54 0.283691 5.26097 0.504546 5.26097 0.997804V1.51985C2.56554 1.67903 0.334141 3.74758 0.00251073 6.45583C-0.0160682 6.60708 0.0699358 6.75187 0.211677 6.80796C0.2518 6.82384 0.293581 6.83151 0.334839 6.83151C0.439334 6.83151 0.54069 6.78258 0.605237 6.69439C1.49476 5.479 2.92298 4.75337 4.4257 4.75337C4.70412 4.75337 4.98412 4.77849 5.26097 4.82821Z" fill="#E6DAFE"/>
<path d="M9.78604 5.19251C9.6443 5.13634 9.48259 5.18309 9.39248 5.30616C8.50305 6.52147 7.07482 7.2471 5.57211 7.2471C5.29368 7.2471 5.01369 7.22198 4.73684 7.17226V6.59745C4.73684 6.10419 4.45772 5.88333 4.18121 5.88333C3.99996 5.88333 3.81984 5.9716 3.64583 6.14562L1.74728 8.04407C1.33052 8.46092 1.33052 9.13919 1.74737 9.55612L3.64583 11.4546C3.81984 11.6286 3.99996 11.7168 4.18121 11.7168C4.45772 11.7168 4.73684 11.4959 4.73684 11.0027V10.4806C7.43236 10.3214 9.66367 8.25289 9.9953 5.54472C10.0139 5.39339 9.92787 5.2486 9.78604 5.19251Z" fill="#E6DAFE"/>
</svg>
