<svg width="12" height="17" viewBox="0 0 12 17" fill="none" xmlns="http://www.w3.org/2000/svg">
<path d="M7.49971 6.99978C7.49971 7.82875 6.82808 8.50089 5.99973 8.50089V10.002C7.65643 10.002 8.9997 8.65772 8.9997 6.99978C8.9997 5.34184 7.65643 3.99756 5.99973 3.99756C5.4536 3.99756 4.94071 4.14353 4.49974 4.39948C3.60287 4.91819 2.99976 5.88837 2.99976 6.99978V14.5053L4.34845 15.855L4.49974 16.0064V6.99978C4.49974 6.17081 5.17138 5.49867 5.99973 5.49867C6.82808 5.49867 7.49971 6.17081 7.49971 6.99978Z" fill="#E6DAFE"/>
<path d="M5.99994 0.993652C4.90701 0.993652 3.88259 1.28627 2.99997 1.7975C2.43485 2.12407 1.92875 2.54025 1.49998 3.02704C0.56648 4.08549 0 5.47594 0 6.9981V11.5014L1.49998 13.0025V6.9981C1.49998 5.66468 2.07936 4.46637 2.99997 3.64147C3.4328 3.25448 3.94094 2.94897 4.49996 2.75208C4.96874 2.58506 5.47416 2.49476 5.99994 2.49476C8.48499 2.49476 10.4999 4.51118 10.4999 6.9981C10.4999 9.48501 8.48499 11.5014 5.99994 11.5014V13.0025C9.31402 13.0025 11.9999 10.314 11.9999 6.9981C11.9999 3.68221 9.31402 0.993652 5.99994 0.993652Z" fill="#E6DAFE"/>
</svg>
