<svg width="10" height="12" viewBox="0 0 10 12" fill="none" xmlns="http://www.w3.org/2000/svg">
<path d="M3.97731 9.40877C2.9123 9.40877 2.04546 8.54193 2.04546 7.47692V2.81787H1.25003C0.560471 2.81787 0 3.37826 0 4.06782V10.2042C0 10.8938 0.560471 11.4542 1.25003 11.4542H6.93181C7.62137 11.4542 8.18184 10.8938 8.18184 10.2042V9.40877H3.97731Z" fill="currentcolor"/>
<path d="M10 1.79544C10 1.10497 9.44046 0.54541 8.75007 0.54541H3.97733C3.28685 0.54541 2.72729 1.10497 2.72729 1.79544V7.47722C2.72729 8.1677 3.28685 8.72725 3.97733 8.72725H8.75007C9.44046 8.72725 10 8.1677 10 7.47722V1.79544Z" fill="currentcolor"/>
</svg>
