<svg width="24" height="24" viewBox="0 0 16 17" fill="none" xmlns="http://www.w3.org/2000/svg">
<path d="M15.9373 11.4704L15.7933 11.4051L15.8375 11.0354C15.8484 10.9449 15.8003 10.8576 15.7179 10.8185C15.6355 10.7793 15.5375 10.7971 15.4742 10.8627L15.2068 11.1389L14.9882 11.0397L14.359 10.7541L14.4056 10.3632C14.4165 10.2727 14.3685 10.1854 14.2862 10.1463C14.2037 10.1074 14.106 10.1248 14.0424 10.1904L13.7599 10.4823L12.8652 10.0763L12.913 9.67624C12.9239 9.58564 12.8759 9.49852 12.7935 9.45935C12.7112 9.42005 12.6133 9.43775 12.5498 9.5033L12.2609 9.80198L12.1581 9.7553C11.873 9.62597 11.7941 9.25786 12.001 9.02304L12.3498 8.62717L12.6486 8.32751L12.9786 8.49251C13.0088 8.50767 13.0413 8.51494 13.0735 8.51494C13.1284 8.51494 13.1824 8.49373 13.2232 8.45321C13.2878 8.38892 13.3042 8.29066 13.2639 8.20887L13.0997 7.87513L13.7657 7.20728L14.0951 7.372C14.1254 7.38712 14.1578 7.39443 14.19 7.39443C14.2449 7.39443 14.2989 7.37318 14.3396 7.3327C14.4044 7.26841 14.4208 7.17031 14.3806 7.08848L14.2165 6.75517L14.9289 6.04072L15.2462 6.19944C15.2764 6.21461 15.3089 6.22187 15.341 6.22187C15.3959 6.22187 15.45 6.20063 15.4906 6.16015C15.5554 6.09585 15.5718 5.99775 15.5315 5.91577L15.3736 5.59482L15.3923 5.57602C15.7864 5.18082 15.7855 4.54097 15.3903 4.14688L14.9288 3.68672C14.6548 3.41344 14.2369 3.47678 13.9583 3.76993C13.719 4.02165 13.7045 4.41491 13.9482 4.71841L14.0823 4.85221L12.169 6.77097C12.169 6.77097 11.4632 6.25982 10.8701 6.85442C10.8701 6.85442 10.3513 7.38961 10.8942 8.13846C10.8942 8.13846 10.9072 8.37885 10.6337 8.39974H9.81326V8.19083C9.81326 7.8651 9.54835 7.60014 9.22266 7.60014C8.89701 7.60014 8.63206 7.8651 8.63206 8.19083V8.39974H7.37964V8.19083C7.37964 7.8651 7.11473 7.60014 6.78904 7.60014C6.46335 7.60014 6.19844 7.8651 6.19844 8.19083V8.39974H4.95393L4.9811 8.26562C5.04582 7.94637 4.83889 7.63403 4.51955 7.56922C4.20018 7.50453 3.88812 7.71171 3.82347 8.03092L3.80562 8.11903C3.41642 7.87726 3.12355 7.4966 2.99524 7.04583H3.12955C3.45524 7.04583 3.72016 6.78092 3.72016 6.45531C3.72016 6.12958 3.45524 5.86467 3.12955 5.86467H3.04879C3.26758 5.30874 3.75491 4.89391 4.33698 4.73796V4.89249C4.33698 5.2181 4.60189 5.48302 4.92759 5.48302C5.25328 5.48302 5.51819 5.2181 5.51819 4.89249V4.67011H7.0271C7.71094 4.67011 8.26549 4.11647 8.26703 3.43306C8.26735 3.27829 8.14307 3.15137 7.9883 3.15137H4.62784C2.24517 3.15137 0.105294 5.09315 0.00462877 7.47369C-0.0672862 9.17398 0.803789 10.6725 2.13499 11.5021C1.68553 12.0096 1.53336 12.6179 1.48187 12.9803C1.45801 13.1482 1.58715 13.2977 1.75665 13.2977L2.81366 13.2977C2.95887 13.2977 3.0732 13.1832 3.08509 13.0384C3.11917 12.6231 3.29483 12.2921 3.46812 12.0593C3.80566 12.1398 4.15603 12.1869 4.51821 12.1869H9.06007C9.21433 12.4288 9.35042 12.7494 9.36021 13.1386C9.36246 13.2276 9.43718 13.2977 9.52619 13.2977L10.8021 13.2977C10.9039 13.2977 10.9837 13.2117 10.974 13.1103C10.9499 12.857 10.8695 12.3831 10.6035 11.9166C10.8746 11.7886 11.127 11.6196 11.3473 11.4082H11.3473C11.6958 11.0749 12.212 10.9871 12.6511 11.1863L14.6768 12.1057C15.1758 12.3322 15.7639 12.1112 15.9904 11.6121C16.0149 11.5583 15.9911 11.4949 15.9373 11.4704ZM11.3297 7.6253C11.1923 7.48822 11.192 7.26572 11.329 7.12829C11.466 6.9909 11.6885 6.99054 11.826 7.12758C11.9634 7.26462 11.9637 7.48712 11.8267 7.62459C11.6896 7.76198 11.4671 7.76234 11.3297 7.6253Z" fill="#E6DAFE"/>
</svg>
