<svg width="24" height="24" viewBox="0 0 20 21" fill="none" xmlns="http://www.w3.org/2000/svg">
<path d="M4.58993 4.16684L2.02715 7.00311C1.96696 7.07052 2.01428 7.17893 2.10458 7.17893H15.0861C15.1141 7.17893 15.1399 7.16802 15.1592 7.14817L17.9542 4.3119C18.0208 4.24581 17.9735 4.13281 17.8811 4.13281H4.66733C4.63723 4.13281 4.60928 4.14503 4.58993 4.16684Z" fill="#E6DAFE"/>
<path d="M15.41 8.73716L17.9728 11.5734C18.033 11.6408 17.9857 11.7495 17.8954 11.7495H4.91388C4.88593 11.7495 4.86014 11.7383 4.84079 11.7187L2.04368 8.88223C1.97918 8.81613 2.02647 8.70312 2.11892 8.70312H15.3326C15.3627 8.70312 15.3907 8.71556 15.41 8.73716Z" fill="#E6DAFE"/>
<path d="M4.58993 13.3045L2.02715 16.141C1.96696 16.2082 2.01428 16.3169 2.10458 16.3169H15.0861C15.1141 16.3169 15.1399 16.3057 15.1592 16.2861L17.9542 13.4498C18.0208 13.3837 17.9735 13.2705 17.8811 13.2705H4.66733C4.63723 13.2705 4.60928 13.2829 4.58993 13.3045Z" fill="#E6DAFE"/>
</svg>
