<svg width="24" height="24" viewBox="0 0 12 11" fill="none" xmlns="http://www.w3.org/2000/svg">
<path fill-rule="evenodd" clip-rule="evenodd" d="M9.5167 1.70789C8.94948 1.14067 8.04192 1.14067 7.4747 1.70789L6.56714 2.61545L5.71631 1.82134L6.68059 0.857059C7.70159 -0.163942 9.28981 -0.163942 10.3108 0.857059L10.3675 0.913781C11.3885 1.93478 11.3885 3.52301 10.3675 4.54401L9.40325 5.50828L8.60914 4.71417L9.57342 3.74989C10.1406 3.18267 10.1406 2.33184 9.5167 1.70789Z" fill="#E6DAFE"/>
<path fill-rule="evenodd" clip-rule="evenodd" d="M2.54001 8.74131C3.10723 9.30853 4.01478 9.30853 4.58201 8.74131L5.54629 7.77703L6.28368 8.62786L5.3194 9.59214C4.2984 10.6131 2.71017 10.6131 1.68917 9.59214L1.63245 9.53542C0.611449 8.51442 0.611449 6.9262 1.63245 5.9052L2.59673 4.94092L3.39084 5.73503L2.42656 6.69931C1.85934 7.26653 1.85934 8.11736 2.54001 8.74131Z" fill="#E6DAFE"/>
<path fill-rule="evenodd" clip-rule="evenodd" d="M3.95817 2.2749L8.89301 7.26646L8.0989 8.06057L3.16406 3.06901L3.95817 2.2749Z" fill="#E6DAFE"/>
</svg>
