<svg width="20" height="16" viewBox="0 0 20 16" fill="none" xmlns="http://www.w3.org/2000/svg">
<path d="M16.9375 1.70051C15.6243 1.09994 14.238 0.67384 12.814 0.433105C12.619 0.781005 12.4425 1.13896 12.2853 1.50546C10.7682 1.27707 9.22532 1.27707 7.70817 1.50546C7.55118 1.13901 7.375 0.781065 7.18037 0.433105C5.75532 0.67593 4.36801 1.10313 3.05344 1.70392C0.72496 4.99634 -0.3282 9.02103 0.089552 13.0305C1.61806 14.1586 3.32886 15.0165 5.1476 15.567C5.55642 15.0166 5.91809 14.4328 6.22879 13.8218C5.63755 13.6012 5.0669 13.329 4.52344 13.0084C4.66669 12.9045 4.80653 12.798 4.94125 12.6941C6.52309 13.4371 8.24958 13.8224 9.99759 13.8224C11.7456 13.8224 13.4721 13.4371 15.0539 12.6941C15.1904 12.8057 15.3311 12.9121 15.4717 13.0084C14.9282 13.3294 14.3576 13.6021 13.7664 13.8235C14.0773 14.4343 14.4395 15.0175 14.8493 15.567C16.6697 15.0188 18.3819 14.1613 19.9107 13.0322C20.3279 9.01981 19.2713 4.99267 16.9375 1.70051ZM6.679 10.7504C6.17681 10.7215 5.70623 10.4961 5.36929 10.123C5.03235 9.74995 4.85619 9.25924 4.87901 8.75728C4.86508 8.50798 4.90055 8.2584 4.98336 8.02282C5.06618 7.78724 5.19471 7.5703 5.36161 7.38444C5.52851 7.19857 5.73048 7.04743 5.95596 6.93968C6.18144 6.83193 6.42598 6.76968 6.67558 6.75651C6.92597 6.76803 7.17157 6.82912 7.39811 6.93625C7.62466 7.04337 7.82764 7.1944 7.99527 7.38054C8.16289 7.56669 8.29182 7.78425 8.37457 8.02059C8.45732 8.25694 8.49223 8.50734 8.47728 8.75728C8.50078 9.25913 8.32509 9.74997 7.98838 10.1232C7.65166 10.4964 7.18112 10.7218 6.679 10.7504ZM13.3205 10.7504C12.8183 10.7218 12.3478 10.4964 12.0111 10.1232C11.6744 9.74997 11.4987 9.25913 11.5222 8.75728C11.5083 8.50785 11.5438 8.25813 11.6267 8.02244C11.7096 7.78676 11.8383 7.56975 12.0054 7.38386C12.1725 7.19797 12.3746 7.04686 12.6003 6.93921C12.826 6.83155 13.0707 6.76947 13.3205 6.75651C13.5707 6.76801 13.8161 6.82913 14.0424 6.93631C14.2687 7.04348 14.4714 7.19458 14.6387 7.38079C14.806 7.56701 14.9345 7.78461 15.0168 8.02093C15.0991 8.25725 15.1334 8.50756 15.1179 8.75728C15.1416 9.25919 14.966 9.75016 14.6292 10.1234C14.2925 10.4966 13.8218 10.722 13.3196 10.7504H13.3205Z" fill="currentColor"/>
</svg>
