<svg width="11" height="12" viewBox="0 0 11 12" fill="none" xmlns="http://www.w3.org/2000/svg">
<path fill-rule="evenodd" clip-rule="evenodd" d="M8.65015 2.48328C8.08293 1.91606 7.17537 1.91606 6.60815 2.48328L5.7006 3.39084L4.84976 2.59673L5.81404 1.63245C6.83504 0.611449 8.42326 0.611449 9.44426 1.63245L9.50099 1.68917C10.522 2.71017 10.522 4.2984 9.50099 5.3194L8.53671 6.28368L7.7426 5.48956L8.70688 4.52528C9.2741 3.95806 9.2741 3.10723 8.65015 2.48328Z" fill="#E6DAFE"/>
<path fill-rule="evenodd" clip-rule="evenodd" d="M1.67331 9.5167C2.24053 10.0839 3.14809 10.0839 3.71531 9.5167L4.67959 8.55242L5.41698 9.40325L4.4527 10.3675C3.4317 11.3885 1.84347 11.3885 0.822473 10.3675L0.76575 10.3108C-0.25525 9.28981 -0.25525 7.70159 0.76575 6.68059L1.73003 5.71631L2.52414 6.51042L1.55986 7.4747C0.99264 8.04192 0.992639 8.89276 1.67331 9.5167Z" fill="#E6DAFE"/>
<path fill-rule="evenodd" clip-rule="evenodd" d="M3.09138 3.05029L8.02622 8.04185L7.23211 8.83596L2.29727 3.8444L3.09138 3.05029Z" fill="#E6DAFE"/>
</svg>
