<svg width="16" height="16" viewBox="0 0 16 16" fill="none" xmlns="http://www.w3.org/2000/svg">
<path fill-rule="evenodd" clip-rule="evenodd" d="M16 16H12.8V10.4008C12.8 8.8648 12.1224 8.008 10.9072 8.008C9.58481 8.008 8.80001 8.9008 8.80001 10.4008V16H5.60001V5.6H8.80001V6.7696C8.80001 6.7696 9.80401 5.008 12.0664 5.008C14.3296 5.008 16 6.3888 16 9.2464V16ZM1.95361 3.9368C1.69605 3.93586 1.4412 3.88418 1.20361 3.78471C0.966024 3.68525 0.750361 3.53996 0.568942 3.35712C0.387523 3.17429 0.243902 2.95751 0.146284 2.71916C0.0486661 2.48081 -0.00103621 2.22556 1.63751e-05 1.968C-0.000930879 1.7105 0.0488492 1.45534 0.146514 1.21708C0.24418 0.978826 0.387817 0.762138 0.569226 0.579392C0.750634 0.396646 0.966262 0.251421 1.2038 0.152009C1.44133 0.0525964 1.69612 0.000943783 1.95361 0C2.47351 0.00211767 2.97129 0.210625 3.33749 0.579674C3.70368 0.948724 3.90833 1.4481 3.90641 1.968C3.90757 2.22553 3.85797 2.48076 3.76044 2.7191C3.66291 2.95745 3.51936 3.17423 3.33801 3.35708C3.15665 3.53992 2.94104 3.68523 2.7035 3.7847C2.46596 3.88417 2.21114 3.93586 1.95361 3.9368ZM1.63751e-05 16H4.00001V5.6H1.63751e-05V16Z" fill="currentColor"/>
</svg>
