<svg width="20" height="20" viewBox="0 0 20 20" fill="none" xmlns="http://www.w3.org/2000/svg">
<path d="M10 1.41943C5.26161 1.41943 1.41943 5.26161 1.41943 10C1.41943 14.7384 5.26161 18.5806 10 18.5806C10.7913 18.5806 11.4301 17.9418 11.4301 17.1505C11.4301 16.7786 11.2919 16.4449 11.0583 16.1923C10.8342 15.9397 10.7007 15.6108 10.7007 15.2437C10.7007 14.4523 11.3395 13.8136 12.1308 13.8136H13.8136C16.4449 13.8136 18.5806 11.6779 18.5806 9.04657C18.5806 4.83258 14.7384 1.41943 10 1.41943ZM4.75634 10C3.965 10 3.32624 9.36124 3.32624 8.56991C3.32624 7.77857 3.965 7.13981 4.75634 7.13981C5.54767 7.13981 6.18643 7.77857 6.18643 8.56991C6.18643 9.36124 5.54762 10 4.75634 10ZM7.61652 6.18643C6.82519 6.18643 6.18643 5.54767 6.18643 4.75634C6.18643 3.965 6.82519 3.32624 7.61652 3.32624C8.40786 3.32624 9.04662 3.965 9.04662 4.75634C9.04662 5.54767 8.40781 6.18643 7.61652 6.18643ZM12.3835 6.18643C11.5921 6.18643 10.9534 5.54767 10.9534 4.75634C10.9534 3.965 11.5921 3.32624 12.3835 3.32624C13.1748 3.32624 13.8136 3.965 13.8136 4.75634C13.8136 5.54767 13.1748 6.18643 12.3835 6.18643ZM15.2437 10C14.4523 10 13.8136 9.36124 13.8136 8.56991C13.8136 7.77857 14.4523 7.13981 15.2437 7.13981C16.035 7.13981 16.6738 7.77857 16.6738 8.56991C16.6738 9.36124 16.035 10 15.2437 10Z" fill="#E6DAFE"/>
</svg>
