<svg width="24" height="20" viewBox="0 0 24 20" fill="none" xmlns="http://www.w3.org/2000/svg">
<path fill-rule="evenodd" clip-rule="evenodd" d="M9.57769 15.2283C8.20413 17.3346 5.90251 20 2.8399 20C1.39211 20 0 19.4035 0 16.8127C0 10.2143 9.00227 0 17.3549 0C22.1066 0 24 3.29916 24 7.04565C24 11.8546 20.8816 17.3532 17.7818 17.3532C16.7981 17.3532 16.3155 16.8127 16.3155 15.9553C16.3155 15.7316 16.3526 15.4893 16.4268 15.2283C15.3688 17.0364 13.3271 18.7139 11.4152 18.7139C10.0232 18.7139 9.31783 17.8378 9.31783 16.6076C9.31783 16.1603 9.41063 15.6943 9.57769 15.2283ZM16.7727 6.91569C16.7727 8.0074 16.1291 8.55325 15.4091 8.55325C14.6782 8.55325 14.0455 8.0074 14.0455 6.91569C14.0455 5.82399 14.6782 5.27814 15.4091 5.27814C16.1291 5.27814 16.7727 5.82399 16.7727 6.91569ZM20.8632 6.91575C20.8632 8.00746 20.2196 8.55331 19.4996 8.55331C18.7687 8.55331 18.136 8.00746 18.136 6.91575C18.136 5.82408 18.7687 5.27822 19.4996 5.27822C20.2196 5.27822 20.8632 5.82408 20.8632 6.91575Z" fill="currentcolor"/>
</svg>
