<svg width="24" height="30" viewBox="0 0 24 30" fill="none" xmlns="http://www.w3.org/2000/svg">
<path d="M14.4904 11.6042C14.4904 13.2059 13.1927 14.5045 11.5923 14.5045V17.4049C14.7932 17.4049 17.3886 14.8075 17.3886 11.6042C17.3886 8.4008 14.7932 5.80347 11.5923 5.80347C10.5371 5.80347 9.5461 6.0855 8.69408 6.58004C6.9612 7.58224 5.7959 9.45678 5.7959 11.6042V26.1059L8.40177 28.7138L8.69408 29.0063V11.6042C8.69408 10.0025 9.99177 8.70382 11.5923 8.70382C13.1927 8.70382 14.4904 10.0025 14.4904 11.6042Z" fill="#E6DAFE"/>
<path d="M11.5927 0C9.48101 0 7.50171 0.565379 5.79636 1.55315C4.70446 2.18412 3.7266 2.98824 2.89818 3.92879C1.09452 5.97386 0 8.66039 0 11.6014V20.3025L2.89818 23.2028V11.6014C2.89818 9.02507 4.0176 6.70977 5.79636 5.11596C6.63265 4.36824 7.61444 3.77794 8.69453 3.39752C9.6003 3.07482 10.5768 2.90035 11.5927 2.90035C16.3942 2.90035 20.2872 6.79635 20.2872 11.6014C20.2872 16.4065 16.3942 20.3025 11.5927 20.3025V23.2028C17.996 23.2028 23.1854 18.0082 23.1854 11.6014C23.1854 5.19466 17.996 0 11.5927 0Z" fill="#E6DAFE"/>
</svg>
