<svg width="20" height="20" viewBox="0 0 20 20" fill="none" xmlns="http://www.w3.org/2000/svg">
<path d="M10.1534 19.2446C10.3652 19.2446 10.5369 19.4137 10.5369 19.6223C10.5369 19.8309 10.3652 20 10.1534 20C9.94161 20 9.76989 19.8309 9.76989 19.6223C9.76989 19.4137 9.94161 19.2446 10.1534 19.2446ZM9.73677 1.20293C9.92418 1.21834 10.0755 1.35975 10.1009 1.54308L10.557 4.84317C10.7102 5.93345 12.0308 6.40587 12.8459 5.66497L17.4158 1.52302C17.5261 1.42311 17.6978 1.43003 17.7993 1.53849C17.8925 1.63799 17.8953 1.79033 17.8058 1.89308L13.8208 6.47054C13.0872 7.31174 13.6285 8.62527 14.7468 8.71906L18.263 9.05659C18.4381 9.07339 18.5662 9.22667 18.5491 9.39899C18.535 9.54106 18.4251 9.65586 18.2817 9.67811L14.587 10.2526C13.5143 10.3982 13.0285 11.6632 13.7262 12.485L15.0251 14.0098C15.1298 14.1326 15.1134 14.3157 14.9885 14.4186C14.8827 14.5059 14.7296 14.5092 14.6199 14.4268L13.0187 13.2226C12.1546 12.5756 10.9092 13.1255 10.8178 14.1964L10.465 18.3729C10.4504 18.5454 10.2965 18.6737 10.1211 18.6593C9.97227 18.6471 9.85202 18.5349 9.83185 18.3893L9.27232 14.355C9.12239 13.2647 7.80184 12.7923 6.98343 13.5332L2.12192 17.9412C2.02129 18.0325 1.86452 18.0261 1.77178 17.9272C1.6867 17.8363 1.68411 17.6973 1.76576 17.6034L6.00858 12.7276C6.74221 11.8864 6.20418 10.5729 5.08581 10.4791L1.56886 10.1415C1.39374 10.1247 1.26563 9.97138 1.28271 9.7991C1.2968 9.65703 1.40671 9.54227 1.55003 9.51993L5.24232 8.94557C6.31507 8.79996 6.80412 7.53499 6.1064 6.71319L5.22219 5.67521C5.09242 5.5229 5.11275 5.29591 5.26761 5.16825C5.39883 5.06004 5.58882 5.0559 5.7248 5.15825L6.81062 5.97555C7.6747 6.62262 8.92017 6.07264 9.0115 5.00176L9.30359 1.56339C9.32202 1.34616 9.51596 1.18477 9.73677 1.20293ZM0.383481 9.41313C0.595271 9.41313 0.766962 9.58223 0.766962 9.79082C0.766962 9.99942 0.595271 10.1685 0.383481 10.1685C0.17169 10.1685 0 9.99942 0 9.79082C0 9.58223 0.17169 9.41313 0.383481 9.41313ZM19.6165 9.02964C19.8283 9.02964 20 9.19875 20 9.40734C20 9.61593 19.8283 9.785 19.6165 9.785C19.4047 9.785 19.233 9.61593 19.233 9.40734C19.233 9.19875 19.4047 9.02964 19.6165 9.02964ZM9.68143 0C9.8932 0 10.0649 0.169096 10.0649 0.377687C10.0649 0.58628 9.8932 0.755375 9.68143 0.755375C9.46962 0.755375 9.29794 0.58628 9.29794 0.377687C9.29794 0.169096 9.46962 0 9.68143 0Z" fill="currentcolor"/>
<path d="M9.91149 13.1666C11.9121 13.1666 13.5339 11.5693 13.5339 9.59893C13.5339 7.62857 11.9121 6.03125 9.91149 6.03125C7.91089 6.03125 6.28906 7.62857 6.28906 9.59893C6.28906 11.5693 7.91089 13.1666 9.91149 13.1666Z" fill="currentcolor"/>
</svg>
