<svg width="20" height="18" viewBox="0 0 20 18" fill="none" xmlns="http://www.w3.org/2000/svg">
<path d="M18.9684 1.29795C18.9539 1.2259 18.9221 1.1593 18.8761 1.10495C18.8301 1.0506 18.7716 1.01045 18.7066 0.988609C18.4701 0.937775 18.2254 0.956607 17.998 1.04314C17.998 1.04314 2.21875 7.19029 1.31797 7.86549C1.1239 8.01223 1.05891 8.0975 1.02687 8.19664C0.871248 8.68147 1.35643 8.89068 1.35643 8.89068L5.42276 10.3263C5.49141 10.3396 5.56195 10.3352 5.62873 10.3134C6.55423 9.67989 14.9368 3.94717 15.4238 3.75483C15.4998 3.73004 15.5566 3.75483 15.5419 3.81531C15.3479 4.55098 8.06743 11.5607 8.06743 11.5607C8.04945 11.5857 8.03438 11.613 8.02258 11.642L8.01342 11.6361L7.63352 16.0055C7.63352 16.0055 7.47515 17.344 8.71006 16.0055C9.58155 15.0606 10.4256 14.2714 10.8476 13.8867C12.2464 14.9327 13.7513 16.0898 14.4004 16.6946C14.5093 16.809 14.6384 16.8984 14.78 16.9575C14.9215 17.0166 15.0726 17.0442 15.2243 17.0386C15.8404 17.0138 16.0124 16.2801 16.0124 16.2801C16.0124 16.2801 18.8878 3.74789 18.9794 2.06932C18.9885 1.90473 19.0013 1.79964 19.0032 1.68661C19.0079 1.55589 18.9959 1.42509 18.9675 1.29795" fill="currentcolor"/>
</svg>
