<svg width="24" height="24" viewBox="0 0 24 24" fill="none" xmlns="http://www.w3.org/2000/svg">
<circle cx="12" cy="12" r="12" fill="#E6DAFE" fill-opacity="0.1"/>
<circle cx="12" cy="12" r="11.5" stroke="#E6DAFE" stroke-opacity="0.5"/>
<path d="M11.4174 16.2855V10.0626H12.1716V16.2855H11.4174ZM11.7945 8.15979C11.6116 8.15979 11.4574 8.09693 11.3316 7.97122C11.2059 7.84551 11.1431 7.69122 11.1431 7.50836C11.1431 7.32551 11.2059 7.17122 11.3316 7.0455C11.4574 6.91979 11.6116 6.85693 11.7945 6.85693C11.9888 6.85693 12.1431 6.91979 12.2574 7.0455C12.3831 7.17122 12.4459 7.32551 12.4459 7.50836C12.4459 7.69122 12.3831 7.84551 12.2574 7.97122C12.1431 8.09693 11.9888 8.15979 11.7945 8.15979Z" fill="#E6DAFE"/>
</svg>
