<svg width="24" height="24" viewBox="0 0 18 18" fill="none" xmlns="http://www.w3.org/2000/svg">
<circle cx="9" cy="9" r="8.5" fill="#E6DAFE" fill-opacity="0.9" stroke="#7731EA"/>
<path d="M8.34863 13.4554V7.85742H9.65126V13.4554H8.34863Z" fill="#7731EA"/>
<path d="M8.28947 6.25496C8.48246 6.44794 8.7193 6.54443 9 6.54443C9.29825 6.54443 9.53509 6.44794 9.71053 6.25496C9.90351 6.06198 10 5.82514 10 5.54443C10 5.26373 9.90351 5.02689 9.71053 4.83391C9.53509 4.64092 9.29825 4.54443 9 4.54443C8.7193 4.54443 8.48246 4.64092 8.28947 4.83391C8.09649 5.02689 8 5.26373 8 5.54443C8 5.82514 8.09649 6.06198 8.28947 6.25496Z" fill="#7731EA"/>
</svg>
