<svg width="20" height="18" viewBox="0 0 20 18" fill="none" xmlns="http://www.w3.org/2000/svg">
<path d="M6.42127 17.0391C7.90319 17.0494 9.37235 16.7578 10.7434 16.1811C12.1145 15.6044 13.3601 14.7542 14.408 13.6798C15.4558 12.6053 16.285 11.3282 16.8474 9.92242C17.4098 8.51667 17.6941 7.01037 17.6839 5.49101C17.6839 5.31531 17.6802 5.14044 17.6726 4.9664C18.4473 4.39149 19.116 3.67981 19.6474 2.86464C18.9251 3.19295 18.1589 3.40834 17.3743 3.50362C18.2011 2.9965 18.8199 2.19859 19.1155 1.25849C18.3381 1.73143 17.4876 2.06469 16.6007 2.2439C16.0044 1.59185 15.2149 1.15974 14.3546 1.01459C13.4943 0.869447 12.6114 1.01936 11.8426 1.4411C11.0739 1.86283 10.4624 2.53282 10.1029 3.34717C9.74343 4.16152 9.65604 5.07472 9.8543 5.94518C8.28043 5.86453 6.74071 5.44536 5.33513 4.71489C3.92955 3.98442 2.68956 2.95899 1.69569 1.7052C1.18912 2.59868 1.03387 3.65656 1.26156 4.66331C1.48925 5.67007 2.08275 6.54994 2.92114 7.12368C2.29247 7.10384 1.67762 6.92961 1.12823 6.61565C1.12823 6.63222 1.12823 6.64963 1.12823 6.66786C1.12876 7.6048 1.44526 8.51273 2.0241 9.23775C2.60293 9.96277 3.40849 10.4603 4.30421 10.6459C3.72146 10.8088 3.11008 10.8326 2.51696 10.7156C2.76975 11.522 3.26217 12.2273 3.9253 12.7325C4.58843 13.2378 5.38907 13.5178 6.21514 13.5334C4.81331 14.6628 3.08164 15.2758 1.29879 15.2738C0.982697 15.2735 0.666894 15.2542 0.353027 15.2158C2.16311 16.4082 4.26974 17.0412 6.42127 17.0391Z" fill="currentColor"/>
</svg>
