<svg width="10" height="10" viewBox="0 0 10 10" fill="none" xmlns="http://www.w3.org/2000/svg">
<path d="M10 7.65927V8.54563C10 9.03455 9.59929 9.432 9.10714 9.432H1.42857C0.640714 9.432 0 8.79594 0 8.01381C0 8.01381 0 1.99186 0 1.98654C0 1.20441 0.640714 0.568359 1.42857 0.568359H8.03571C8.33179 0.568359 8.57143 0.806614 8.57143 1.10018C8.57143 1.39374 8.33179 1.632 8.03571 1.632H1.42857C1.23179 1.632 1.07143 1.79083 1.07143 1.98654C1.07143 2.18225 1.23179 2.34109 1.42857 2.34109H9.10714C9.59929 2.34109 10 2.73853 10 3.22745V4.11381H8.21429C7.22964 4.11381 6.42857 4.90906 6.42857 5.88654C6.42857 6.86402 7.22964 7.65927 8.21429 7.65927H10Z" fill="currentcolor"/>
<path d="M9.99996 4.88672V6.93217H8.15336C7.5414 6.93217 7.04541 6.47433 7.04541 5.90945C7.04541 5.34456 7.5414 4.88672 8.15336 4.88672H9.99996Z" fill="currentcolor"/>
</svg>
