<svg width="200" height="200" viewBox="0 0 200 200" fill="none" xmlns="http://www.w3.org/2000/svg">
<g clip-path="url(#clip0_162_3449)">
<circle cx="100" cy="100" r="99.5" fill="#3396FF" stroke="#66B1FF"/>
<path d="M61.2594 74.4824C82.6553 53.6182 117.345 53.6182 138.741 74.4824L141.316 76.9935C142.386 78.0367 142.386 79.728 141.316 80.7713L132.507 89.361C131.972 89.8827 131.105 89.8827 130.57 89.361L127.027 85.9055C112.1 71.3501 87.8999 71.3501 72.9736 85.9055L69.1787 89.6061C68.6438 90.1277 67.7766 90.1277 67.2417 89.6061L58.433 81.0163C57.3632 79.9731 57.3632 78.2817 58.433 77.2385L61.2594 74.4824ZM156.958 92.247L164.798 99.8919C165.867 100.935 165.867 102.627 164.798 103.67L129.448 138.142C128.378 139.185 126.644 139.185 125.574 138.142L100.484 113.676C100.217 113.415 99.7834 113.415 99.516 113.676L74.4273 138.142C73.3575 139.185 71.623 139.185 70.5532 138.142L35.2023 103.669C34.1325 102.626 34.1325 100.935 35.2023 99.8915L43.0421 92.2466C44.1119 91.2033 45.8464 91.2033 46.9162 92.2466L72.0057 116.713C72.2732 116.973 72.7068 116.973 72.9742 116.713L98.0626 92.2466C99.1323 91.2033 100.867 91.2033 101.937 92.2465L127.026 116.713C127.294 116.973 127.727 116.973 127.995 116.713L153.084 92.247C154.154 91.2038 155.888 91.2038 156.958 92.247Z" fill="white"/>
</g>
<defs>
<clipPath id="clip0_162_3449">
<rect width="200" height="200" fill="white"/>
</clipPath>
</defs>
</svg>
