<svg width="16" height="17" viewBox="0 0 16 17" fill="none" xmlns="http://www.w3.org/2000/svg">
<path d="M8.04297 10.5484L10.2235 14.0123L12.238 12.8308L9.37408 8.26221L8.04297 10.5484Z" fill="#E6DAFE"/>
<path d="M14.0725 11.4417L14.071 10.495L10.9417 5.56201L9.78076 7.55584L12.8016 12.5006L13.8939 11.86C14.001 11.7719 14.0658 11.6427 14.0726 11.5033L14.0725 11.4417Z" fill="#E6DAFE"/>
<path d="M0.959473 12.3343L2.50188 13.2338L7.63468 4.90258L6.76356 4.87931C6.02132 4.8687 5.22177 5.064 4.8548 5.67029L1.94006 10.2427L0.959473 11.7676V12.3343Z" fill="#E6DAFE"/>
<path d="M10.5966 4.90234L8.30072 4.91078L3.10645 13.5861L4.92201 14.6441L5.41574 13.7966L10.5966 4.90234Z" fill="#E6DAFE"/>
<path d="M15.0401 4.89064C15.0209 4.40467 14.7609 3.9598 14.3537 3.7008L8.64601 0.378686C8.24319 0.173404 7.73998 0.173141 7.33645 0.378554C7.28874 0.402909 1.78585 3.63301 1.78585 3.63301C1.70969 3.66999 1.63633 3.71401 1.56733 3.76401C1.20381 4.02769 0.982233 4.43746 0.959473 4.88764V11.7677L1.94006 10.2428L1.9315 4.93414C1.93264 4.91473 1.93505 4.89561 1.93847 4.87676C1.96064 4.75186 2.02954 4.64044 2.13328 4.56513C2.15917 4.54638 7.75607 1.26744 7.77385 1.25844C7.90539 1.19157 8.0726 1.19078 8.20431 1.25637L13.8382 4.53623C13.9714 4.62215 14.055 4.76781 14.0624 4.92705V11.5031C14.0556 11.6426 14.0011 11.7718 13.894 11.8599L12.8018 12.5005L12.2382 12.831L10.2238 14.0126L8.18099 15.2108C8.07097 15.251 7.94232 15.2487 7.8332 15.2038L5.41623 13.7969L4.9225 14.6444L7.09455 15.9101C7.16638 15.9514 7.23036 15.9881 7.28288 16.0179C7.36419 16.064 7.41961 16.0949 7.43918 16.1046C7.59355 16.1804 7.81569 16.2246 8.01584 16.2246C8.19936 16.2246 8.37832 16.1905 8.54764 16.1234L14.4812 12.6455C14.8217 12.3784 15.0221 11.9757 15.0401 11.5394V4.89064Z" fill="#E6DAFE"/>
</svg>
