<svg width="24" height="24" viewBox="0 0 16 17" fill="none" xmlns="http://www.w3.org/2000/svg">
<path d="M8.00023 2.29421C8.28919 2.2933 8.57263 2.37328 8.81848 2.52512C9.06434 2.67695 9.26278 2.89457 9.39136 3.15334L13.7663 11.9033C13.8851 12.1405 13.9412 12.4041 13.9293 12.669C13.9175 12.934 13.8381 13.1915 13.6987 13.4171C13.5593 13.6428 13.3645 13.829 13.1329 13.9581C12.9013 14.0873 12.6404 14.1551 12.3752 14.155H3.62525C3.36008 14.155 3.09931 14.0871 2.86773 13.958C2.63615 13.8288 2.44144 13.6425 2.3021 13.4169C2.16275 13.1913 2.08341 12.9338 2.07159 12.6689C2.05978 12.404 2.11589 12.1405 2.23459 11.9033L6.60911 3.15334C6.73768 2.89457 6.93613 2.67695 7.18198 2.52512C7.42783 2.37328 7.71128 2.2933 8.00023 2.29421ZM8.00023 1.22461C7.51282 1.22456 7.03503 1.36022 6.62036 1.61639C6.2057 1.87256 5.87054 2.23912 5.65244 2.67501L1.27746 11.425C1.0772 11.8252 0.982599 12.27 1.00263 12.7171C1.02266 13.1642 1.15667 13.5987 1.39191 13.9794C1.62716 14.3602 1.95584 14.6744 2.34672 14.8923C2.73761 15.1103 3.17772 15.2247 3.62525 15.2246H12.3752C12.8227 15.2246 13.2628 15.1101 13.6536 14.8922C14.0444 14.6742 14.373 14.36 14.6082 13.9792C14.8434 13.5985 14.9774 13.164 14.9974 12.717C15.0174 12.2699 14.9228 11.8252 14.7225 11.425L10.348 2.67501C10.1299 2.23912 9.79477 1.87256 9.38011 1.61639C8.96544 1.36022 8.48764 1.22456 8.00023 1.22461Z" fill="#E6DAFE"/>
</svg>
