<svg width="24" height="24" viewBox="0 0 16 17" fill="none" xmlns="http://www.w3.org/2000/svg">
<path fill-rule="evenodd" clip-rule="evenodd" d="M16 8.22476C16 12.643 12.4182 16.2246 8 16.2246C3.5818 16.2246 0 12.643 0 8.22476C0 3.80655 3.5818 0.224609 8 0.224609C12.4182 0.224609 16 3.80655 16 8.22476ZM11.8239 8.43159C11.5468 7.95298 11.0996 7.95298 10.8222 8.43159L9.0648 11.4616C8.79396 11.9402 9.02085 12.3308 9.56879 12.3308H13.046C13.6002 12.3308 13.8271 11.9402 13.5499 11.4616L11.8239 8.43159ZM8.47919 2.5985C8.20179 2.11989 7.76086 2.11989 7.48375 2.5985L2.45064 11.4616C2.17353 11.9465 2.40043 12.3308 2.95464 12.3308H5.48062C5.99089 12.2994 6.45065 12.0285 6.72776 11.6002L9.77027 6.32769C9.99088 5.87422 9.99088 5.33874 9.77027 4.88527L8.86331 3.29142L8.47919 2.5985Z" fill="#E6DAFE"/>
</svg>
