<svg width="24" height="24" viewBox="0 0 16 17" fill="none" xmlns="http://www.w3.org/2000/svg">
<path d="M12.3855 8.22212L14.1904 10.0288L16 8.22212L14.1951 6.41987L12.3855 8.22212ZM8 3.83778L4.90337 6.93331L3.09637 5.12975L8 0.224609L12.9068 5.12975L11.0987 6.93331L8 3.83778ZM1.80464 6.41987L3.61006 8.22212L1.80516 10.0262L0 8.22212L1.80464 6.41987ZM8 12.6104L11.0932 9.51489L12.8992 11.3195L7.9979 16.2246L3.09637 11.3195L4.90127 9.51489L8 12.6104ZM8 10.0288L6.19247 8.22212L8 6.41987L9.80753 8.22212L8 10.0288Z" fill="#E6DAFE"/>
</svg>
