<svg width="24" height="24" viewBox="0 0 16 17" fill="none" xmlns="http://www.w3.org/2000/svg">
<path d="M6.22379 3.50105C3.45857 4.58375 3.20526 7.35658 2.41237 8.65154C1.61009 9.96191 -0.227937 10.6849 0.0234076 11.3527C0.274753 12.0205 2.11495 11.3033 3.57082 11.7293C5.00943 12.1503 7.01668 14.0382 9.78192 12.9555C11.1906 12.4039 12.2106 11.2687 12.6796 9.92405C12.7302 9.7797 12.6358 9.62535 12.4862 9.61109C12.3932 9.60218 12.3038 9.65185 12.2619 9.73695C11.8376 10.599 11.1098 11.3088 10.1572 11.6816C8.58482 12.2973 6.86426 11.8139 5.80757 10.6016C5.56758 10.3263 5.36231 10.0129 5.20029 9.66656C5.15574 9.57124 5.11337 9.47433 5.07582 9.37411C5.03804 9.27387 5.00595 9.17297 4.97645 9.07163C5.80757 8.6765 6.76665 8.25798 7.85387 7.83235C8.91995 7.41494 9.89021 7.07637 10.754 6.80554C11.3384 6.62246 11.8741 6.4701 12.3578 6.3456C12.3928 6.33667 12.4272 6.32778 12.4615 6.31908C12.5347 6.30059 12.6098 6.34047 12.6368 6.41219L12.6373 6.41352C12.6532 6.45606 12.667 6.49884 12.6819 6.54159C12.7775 6.81757 12.8491 7.09642 12.8965 7.37595C12.9172 7.49824 13.0483 7.56483 13.1556 7.50603C13.5527 7.28863 13.9159 7.0766 14.2404 6.87258C15.4495 6.11306 16.1199 5.46889 15.9823 5.10384C15.845 4.73856 14.9243 4.71762 13.5274 4.97822C13.0834 5.06107 12.5912 5.17243 12.0608 5.31031C11.9691 5.33415 11.8763 5.35886 11.7824 5.38427C11.336 5.50499 10.8652 5.6433 10.3749 5.79811C9.46327 6.08611 8.48521 6.43111 7.4755 6.82646C6.5308 7.19643 5.63549 7.57999 4.81444 7.9622C4.80439 6.34002 5.76586 4.80648 7.3383 4.19085C8.29066 3.818 9.2973 3.84849 10.1782 4.19976C10.2651 4.23451 10.3641 4.21046 10.4276 4.1403C10.5294 4.02782 10.4981 3.84873 10.366 3.77568C9.13531 3.097 7.63246 2.94954 6.22379 3.50105Z" fill="#E6DAFE"/>
</svg>
