<svg width="24" height="24" viewBox="0 0 16 17" fill="none" xmlns="http://www.w3.org/2000/svg">
<path d="M5.1148 9.19616C5.51716 9.19616 5.90971 9.06204 6.22702 8.8167L3.67545 6.26514C3.06046 7.06005 3.20767 8.20498 4.00258 8.81997C4.32316 9.06204 4.71244 9.19616 5.1148 9.19616Z" fill="#E6DAFE"/>
<path d="M12.704 7.37394C12.704 6.97158 12.5699 6.57903 12.3245 6.26172L9.77295 8.81328C10.5679 9.42827 11.7095 9.28107 12.3245 8.48616C12.5699 8.16885 12.704 7.7763 12.704 7.37394Z" fill="#E6DAFE"/>
<path d="M13.9896 4.59668L12.861 5.72526C13.7704 6.81458 13.6265 8.43711 12.5372 9.34651C11.582 10.1447 10.195 10.1447 9.23975 9.34651L7.99995 10.5863L6.76343 9.34978C5.67411 10.2592 4.05157 10.1153 3.14217 9.02593C2.34399 8.07073 2.34399 6.68373 3.14217 5.72853L2.56316 5.14952L2.01359 4.59668C1.34953 5.68927 0.999512 6.94543 0.999512 8.22448C0.999512 12.0911 4.13335 15.2249 7.99995 15.2249C11.8666 15.2249 15.0004 12.0911 15.0004 8.22448C15.0037 6.94543 14.6504 5.68927 13.9896 4.59668Z" fill="#E6DAFE"/>
<path d="M13.0637 3.39297C10.3977 0.596065 5.96843 0.491385 3.17153 3.15744C3.08975 3.23595 3.01124 3.31446 2.936 3.39297C2.76262 3.57616 2.59906 3.76589 2.44531 3.96544L7.99987 9.52326L13.5544 3.96544C13.4039 3.76589 13.2371 3.57616 13.0637 3.39297ZM7.99987 2.14009C9.63549 2.14009 11.1599 2.77144 12.3048 3.92291L7.99987 8.22786L3.69492 3.92291C4.83986 2.77144 6.36425 2.14009 7.99987 2.14009Z" fill="#E6DAFE"/>
</svg>
