<svg width="24" height="24" viewBox="0 0 16 17" fill="none" xmlns="http://www.w3.org/2000/svg">
<path d="M15.4071 7.19115L14.9896 6.48473L12.6906 2.61875H12.6777L12.6071 2.48389H11.7658L8.49707 8.23151L11.8172 13.947H12.6585L12.6777 13.9149L15.4199 9.22048H13.731L12.2732 11.8149L10.1925 8.21866L12.2282 4.6224L13.7117 7.17832L15.4071 7.19115Z" fill="#E6DAFE"/>
<path d="M2.61534 6.25297L4.15018 3.63926L3.63644 2.81082L3.27679 2.22001L0.650231 6.85663L0.57959 6.98508L0.997015 7.72359H7.60517L10.9381 2.02093L10.4758 1.22461L5.85199 1.23745H5.78135L5.04282 1.22461L5.43456 1.96313L5.8263 2.70165L8.85102 2.68881L6.77032 6.25297H2.61534Z" fill="#E6DAFE"/>
<path d="M5.88416 3.22852C5.76855 3.22852 5.64012 3.24778 5.51809 3.29274C5.38324 3.33769 5.24196 3.39549 5.11995 3.47255C4.76031 3.69089 4.50985 4.00556 4.47133 4.30097C4.45206 4.43585 4.48418 4.55143 4.55482 4.63492C4.56766 4.65419 4.58691 4.66703 4.59976 4.68628C4.61261 4.69913 4.61903 4.69913 4.63188 4.70555C4.64473 4.7184 4.64473 4.7184 4.65115 4.72483C4.6704 4.73767 4.68325 4.7441 4.70252 4.75695C4.92086 4.85968 5.26765 4.84041 5.608 4.68628L5.62085 4.67346C5.65297 4.66061 5.68506 4.64134 5.71718 4.62849C5.74928 4.61564 5.76855 4.5964 5.80067 4.57712C5.83277 4.55785 5.86489 4.53216 5.89698 4.51291C5.9291 4.49364 5.94837 4.46794 5.98047 4.44869L5.99974 4.43585C6.01901 4.41657 6.04471 4.40373 6.06396 4.38446C6.0768 4.37163 6.0768 4.37163 6.08323 4.36521C6.1025 4.35236 6.11535 4.33309 6.12817 4.32024C6.14102 4.30739 6.14744 4.30097 6.16029 4.2753C6.17314 4.2496 6.19241 4.24318 6.20523 4.22391C6.21808 4.21108 6.21808 4.21108 6.22451 4.20466C6.23735 4.18539 6.25662 4.17254 6.26947 4.15327L6.28872 4.13402C6.30157 4.11475 6.30799 4.1019 6.32084 4.08263C6.32084 4.08263 6.32084 4.08263 6.32084 4.06978L6.33369 4.05053C6.35296 4.03126 6.36578 3.99914 6.37863 3.97989C6.39148 3.96062 6.3979 3.9285 6.41075 3.90923L6.4236 3.89641C6.4236 3.88356 6.43645 3.87713 6.43645 3.87713C6.43645 3.86429 6.43645 3.86429 6.44927 3.85786C6.44927 3.83859 6.46212 3.82577 6.46212 3.80649C6.46212 3.78722 6.47497 3.78722 6.47497 3.77438C6.47497 3.76153 6.47497 3.7551 6.47497 3.7551C6.47497 3.73586 6.47497 3.72301 6.47497 3.71016V3.69089C6.47497 3.67164 6.47497 3.65879 6.47497 3.63952C6.47497 3.62667 6.47497 3.62667 6.47497 3.62025C6.47497 3.61383 6.47497 3.60098 6.47497 3.60098C6.47497 3.58815 6.47497 3.58815 6.47497 3.58173V3.56888C6.47497 3.54961 6.46212 3.53676 6.45569 3.51751C6.44927 3.49824 6.43645 3.4854 6.4236 3.46613C6.31442 3.29916 6.11535 3.22852 5.88416 3.22852Z" fill="#E6DAFE"/>
<path d="M6.65597 3.99254C6.65597 4.01181 6.64312 4.02466 6.6367 4.0439C6.6367 4.05675 6.6367 4.05675 6.62385 4.06318C6.611 4.09529 6.60458 4.11457 6.57891 4.14666C6.4633 4.365 6.27708 4.57694 6.04589 4.74389C6.01377 4.76317 5.98165 4.78886 5.94955 4.80813C5.91743 4.82738 5.88534 4.85308 5.85322 4.8595H5.84037C5.82752 4.87235 5.82112 4.87235 5.80828 4.87877C5.789 4.89162 5.77616 4.89802 5.75688 4.91087H5.74406C5.73121 4.91087 5.72479 4.92372 5.71194 4.92372C5.69267 4.93656 5.667 4.94299 5.64773 4.94299L5.62845 4.95583C5.62845 4.95583 5.62845 4.95583 5.61561 4.95583C5.60276 4.95583 5.59634 4.96868 5.58351 4.96868C5.56424 4.98151 5.53854 4.98151 5.51927 4.98793L5.50002 5.00078H5.48718C5.4679 5.01363 5.44221 5.01363 5.42296 5.02005C5.41011 5.02005 5.40369 5.0329 5.37799 5.0329H5.36515C5.3459 5.0329 5.3202 5.04575 5.31378 5.04575C5.30735 5.04575 5.28168 5.04575 5.26883 5.05857H5.25599C5.24314 5.05857 5.23672 5.05857 5.22387 5.07142C5.21102 5.07142 5.20462 5.07142 5.19177 5.07142C5.15965 5.07142 5.12113 5.08427 5.08901 5.08427H5.07617C5.04407 5.08427 5.01195 5.08427 4.97983 5.08427C4.96701 5.08427 4.96058 5.08427 4.96058 5.08427H4.97343C4.95416 5.08427 4.92846 5.08427 4.90919 5.07142C4.89637 5.07142 4.88994 5.07142 4.8771 5.05857C4.85782 5.05857 4.83213 5.04575 4.81288 5.04575C4.80003 5.04575 4.79361 5.0329 4.78076 5.0329L5.35875 5.9705L6.59818 5.95765L7.24035 4.82096L6.66239 3.87695C6.66239 3.88978 6.66239 3.8962 6.64954 3.90905C6.64954 3.9219 6.64954 3.9219 6.64954 3.92832C6.64954 3.93474 6.6367 3.94759 6.6367 3.97326C6.65597 3.97969 6.65597 3.99254 6.65597 3.99254Z" fill="#E6DAFE"/>
<path d="M13.2365 7.40865C13.3008 7.50499 13.3393 7.62057 13.3714 7.75545C13.4035 7.8903 13.4228 8.03801 13.4228 8.18571C13.4228 8.60314 13.2879 8.98203 13.0567 9.17468C12.954 9.25817 12.8384 9.30313 12.7228 9.27744C12.7035 9.27744 12.6778 9.26459 12.6586 9.26459C12.6457 9.26459 12.6393 9.25174 12.6265 9.25174C12.6136 9.25174 12.6072 9.23892 12.5944 9.23892C12.5751 9.22607 12.5494 9.21965 12.543 9.2068C12.3311 9.07194 12.1769 8.76369 12.132 8.39763V8.3848C12.132 8.35268 12.1191 8.32056 12.1191 8.28204C12.1191 8.24992 12.1191 8.21783 12.1191 8.18571C12.1191 8.14076 12.1191 8.11507 12.1191 8.07012C12.1191 8.03801 12.1191 8.00589 12.132 7.97379V7.95452C12.132 7.93525 12.1448 7.90315 12.1448 7.88388C12.1448 7.87103 12.1448 7.86461 12.1448 7.85176C12.1448 7.83251 12.1577 7.80682 12.1577 7.78755C12.1577 7.7683 12.1705 7.75545 12.1705 7.73618C12.1834 7.71691 12.1834 7.69123 12.1898 7.67196C12.1898 7.65911 12.2026 7.65269 12.2026 7.63984C12.2155 7.62057 12.2155 7.5949 12.2219 7.57563L12.2347 7.54351C12.2476 7.52426 12.254 7.51141 12.254 7.49214C12.254 7.49214 12.254 7.49214 12.254 7.47929L12.2668 7.46002C12.2797 7.42793 12.2989 7.40865 12.3118 7.38938C12.3246 7.37013 12.3439 7.34444 12.3568 7.32517L12.3696 7.31232C12.3824 7.2995 12.3824 7.2995 12.3888 7.29307C12.4017 7.28022 12.4017 7.28022 12.4017 7.2738C12.4145 7.26095 12.421 7.25453 12.4338 7.24168C12.4466 7.22883 12.4531 7.22243 12.4531 7.22243C12.4659 7.20958 12.4659 7.20958 12.4723 7.20316C12.4852 7.19031 12.4916 7.18389 12.5045 7.17104L12.5237 7.15819C12.5366 7.14537 12.5558 7.13895 12.5687 7.1261C12.5815 7.1261 12.5815 7.1261 12.5879 7.11325C12.6008 7.11325 12.6072 7.1004 12.6072 7.1004C12.6072 7.1004 12.62 7.1004 12.62 7.08755H12.6329C12.6522 7.08755 12.665 7.07471 12.6843 7.07471C12.7035 7.07471 12.7292 7.07471 12.7485 7.07471C12.954 7.08113 13.1145 7.20958 13.2365 7.40865Z" fill="#E6DAFE"/>
<path d="M12.1772 7.15845C12.1644 7.1713 12.1579 7.19057 12.1451 7.2034C12.1451 7.21624 12.1323 7.21625 12.1323 7.22267C12.113 7.24194 12.1001 7.27406 12.0809 7.29331C11.946 7.50525 11.8689 7.77496 11.8497 8.05751C11.8497 8.10248 11.8497 8.12815 11.8497 8.17312C11.8497 8.20522 11.8497 8.24376 11.8497 8.27588V8.2887C11.8497 8.30155 11.8497 8.32082 11.8497 8.33367C11.8497 8.35294 11.8497 8.37861 11.8625 8.39789V8.41073C11.8625 8.42358 11.8625 8.43 11.8625 8.44283C11.8625 8.4621 11.8754 8.4878 11.8754 8.50707V8.52632C11.8754 8.52632 11.8754 8.52632 11.8754 8.53916C11.8754 8.55201 11.8754 8.55844 11.8882 8.57128C11.8882 8.59055 11.9011 8.61623 11.9011 8.6355L11.9139 8.65477V8.66762C11.9139 8.68687 11.9268 8.71256 11.9332 8.73183C11.9332 8.74468 11.946 8.75108 11.946 8.76393V8.77678C11.9589 8.79605 11.9589 8.8089 11.9653 8.82814C11.9653 8.84099 11.9781 8.84741 11.9846 8.87311V8.88596C11.9846 8.89881 11.9974 8.90521 11.9974 8.91805C12.0102 8.9309 12.0102 8.93733 12.0102 8.93733C12.0231 8.96944 12.0423 9.00154 12.0616 9.03366L12.0745 9.04651C12.0937 9.0786 12.1066 9.09788 12.1258 9.11715C12.1258 9.12999 12.1387 9.12999 12.1387 9.1364L12.1515 9.14924C12.1644 9.16851 12.1836 9.18136 12.1965 9.20063C12.2093 9.21346 12.2093 9.21988 12.2157 9.21988C12.235 9.23915 12.2478 9.252 12.2607 9.27127C12.2735 9.28412 12.28 9.28412 12.28 9.29052H11.1754L10.5332 8.23091L11.1625 7.09424H12.2671C12.2543 7.10709 12.2543 7.10709 12.2478 7.11351L12.235 7.12633C12.2093 7.12633 12.2029 7.13276 12.1772 7.15845Z" fill="#E6DAFE"/>
<path d="M5.88416 13.1949C5.76855 13.1949 5.64012 13.1756 5.51809 13.1307C5.38324 13.0857 5.24196 13.0279 5.11995 12.9509C4.76031 12.7325 4.50985 12.4179 4.47133 12.1225C4.45206 11.9876 4.48418 11.872 4.55482 11.7885C4.56766 11.7692 4.58691 11.7564 4.59976 11.7371C4.61261 11.7243 4.61903 11.7243 4.63188 11.7179C4.64473 11.7115 4.64473 11.705 4.65115 11.6986C4.6704 11.6858 4.68325 11.6793 4.70252 11.6665C4.92086 11.5638 5.26765 11.583 5.608 11.7371L5.62085 11.75C5.65297 11.7628 5.68506 11.7821 5.71718 11.7949C5.74928 11.8078 5.76855 11.827 5.80067 11.8463C5.83277 11.8656 5.86489 11.8913 5.89698 11.9105C5.9291 11.9298 5.94837 11.9555 5.98047 11.9748L5.99974 11.9876C6.01901 12.0069 6.04471 12.0197 6.06396 12.039C6.0768 12.0518 6.0768 12.0518 6.08323 12.0582C6.1025 12.0711 6.11535 12.0903 6.12817 12.1032C6.14102 12.116 6.14744 12.1225 6.16029 12.1481C6.17314 12.1738 6.19241 12.1803 6.20523 12.1995C6.21808 12.2124 6.21808 12.2124 6.22451 12.2188C6.23735 12.238 6.25662 12.2509 6.26947 12.2702L6.28872 12.2894C6.30157 12.3087 6.30799 12.3215 6.32084 12.3408V12.3537L6.33369 12.3729C6.35296 12.3922 6.36578 12.4243 6.37863 12.4435C6.39148 12.4628 6.3979 12.4949 6.41075 12.5142L6.4236 12.527C6.4236 12.5399 6.43645 12.5463 6.43645 12.5463C6.43645 12.5591 6.43645 12.5591 6.44927 12.5656C6.44927 12.5848 6.46212 12.5977 6.46212 12.6169C6.46212 12.6362 6.47497 12.6362 6.47497 12.6491C6.47497 12.6619 6.47497 12.6683 6.47497 12.6683C6.47497 12.6876 6.47497 12.7004 6.47497 12.7133V12.7325C6.47497 12.7518 6.47497 12.7646 6.47497 12.7839C6.47497 12.7968 6.47497 12.7968 6.47497 12.8032C6.47497 12.816 6.47497 12.8225 6.47497 12.8225C6.47497 12.8353 6.47497 12.8353 6.47497 12.8417V12.8546C6.47497 12.8738 6.46212 12.8867 6.45569 12.9059C6.44285 12.9252 6.43645 12.938 6.4236 12.9573C6.31442 13.1243 6.11535 13.2078 5.88416 13.1949Z" fill="#E6DAFE"/>
<path d="M6.65597 12.4306C6.65597 12.4113 6.64312 12.3985 6.6367 12.3792C6.6367 12.3664 6.6367 12.3664 6.62385 12.3599C6.611 12.3278 6.60458 12.3086 6.57891 12.2765C6.4633 12.0581 6.27708 11.8462 6.04589 11.6792C6.01377 11.6599 5.98165 11.6343 5.94955 11.615C5.91743 11.5957 5.88534 11.5701 5.85322 11.5636H5.84037C5.82752 11.5508 5.82112 11.5508 5.80828 11.5444C5.789 11.5315 5.77616 11.5251 5.75688 11.5122H5.74406C5.73121 11.5122 5.72479 11.4994 5.71194 11.4994C5.69267 11.4866 5.667 11.4802 5.64773 11.4802L5.62845 11.4673C5.62845 11.4673 5.62845 11.4673 5.61561 11.4673C5.60276 11.4673 5.59634 11.4545 5.58351 11.4545C5.56424 11.4416 5.53854 11.4416 5.51927 11.4352L5.50002 11.4223H5.48718C5.4679 11.4095 5.44221 11.4095 5.42296 11.4031C5.41011 11.4031 5.40369 11.3902 5.37799 11.3902H5.36515C5.3459 11.3902 5.3202 11.3774 5.31378 11.3774C5.30735 11.3774 5.28168 11.3774 5.26883 11.3645H5.25599C5.24314 11.3645 5.23672 11.3645 5.22387 11.3517C5.21102 11.3517 5.20462 11.3517 5.19177 11.3517C5.15965 11.3517 5.12113 11.3388 5.08901 11.3388H5.07617C5.04407 11.3388 5.01195 11.3388 4.97983 11.3388C4.96701 11.3388 4.96058 11.3388 4.96058 11.3388H4.97343C4.95416 11.3388 4.92846 11.3388 4.90919 11.3517C4.89637 11.3517 4.88994 11.3517 4.8771 11.3645C4.85782 11.3645 4.83213 11.3774 4.81288 11.3774C4.80003 11.3774 4.79361 11.3902 4.78076 11.3902L5.35875 10.4526L6.59818 10.4655L7.24035 11.6022L6.66239 12.5462C6.66239 12.5333 6.66239 12.5269 6.64954 12.5141C6.64954 12.5012 6.64954 12.5012 6.64954 12.4948C6.64954 12.482 6.6367 12.4755 6.6367 12.4499C6.65597 12.4434 6.65597 12.4306 6.65597 12.4306Z" fill="#E6DAFE"/>
<path d="M8.85102 13.7537L5.8263 13.7408L5.36392 14.6142L5.04924 15.2115L5.85841 15.1986V15.2115L10.4822 15.2243L10.9446 14.428L7.60517 8.71888L0.997015 8.70605L0.57959 9.44457L0.663075 9.57942H0.650231L3.27679 14.2032L4.15018 12.784L2.61534 10.1767H6.77032L8.85102 13.7537Z" fill="#E6DAFE"/>
</svg>
