<svg width="24" height="24" viewBox="0 0 16 17" fill="none" xmlns="http://www.w3.org/2000/svg">
<path d="M3.29291 5.83489L0.866729 4.59961C0.676951 4.97245 0.515329 5.36339 0.386719 5.76155L2.97736 6.59923C3.06202 6.33735 3.16794 6.08016 3.29291 5.83489Z" fill="#E6DAFE"/>
<path d="M5.35415 3.6578L6.69798 5.97321C6.89424 5.85939 7.1043 5.77187 7.32281 5.71312L6.62732 3.12776C6.8043 3.08017 6.98418 3.04088 7.16506 3.01232L6.73767 0.323242C6.32431 0.388861 5.91357 0.487905 5.51659 0.617325L6.34761 3.16422C6.08328 3.2505 5.82587 3.35764 5.57796 3.48443L4.35647 1.10017C3.98502 1.29055 3.62572 1.51172 3.28809 1.75821L4.89317 3.95737C5.04102 3.84961 5.19575 3.74996 5.35415 3.6578Z" fill="#E6DAFE"/>
<path d="M12.5651 5.57635L10.2505 6.92141C10.3645 7.11745 10.452 7.32768 10.511 7.54584L13.0961 6.84908C13.1437 7.02611 13.183 7.20576 13.2118 7.38642L15.9004 6.95825C15.8346 6.54511 15.7354 6.13415 15.6056 5.73699L13.0591 6.56959C12.9726 6.3053 12.8654 6.04807 12.7384 5.80016L15.1219 4.57707C14.9315 4.20602 14.7099 3.84671 14.4635 3.50928L12.2649 5.11541C12.3729 5.26326 12.473 5.41777 12.5651 5.57635Z" fill="#E6DAFE"/>
<path d="M11.6213 1.08927C11.248 0.899696 10.8571 0.738271 10.4593 0.609863L9.62305 3.20092C9.88471 3.28537 10.1419 3.3915 10.3876 3.51626L11.6213 1.08927Z" fill="#E6DAFE"/>
<path d="M10.6546 3.61052L9.29541 5.96947C9.49228 6.08288 9.67373 6.22184 9.83516 6.38261L13.6473 2.55753C13.3516 2.26284 13.0304 1.98921 12.6925 1.74414L11.1202 3.9125C10.9704 3.80394 10.815 3.70308 10.6546 3.61052Z" fill="#E6DAFE"/>
<path d="M3.38762 5.56805L5.74594 6.92871C5.85936 6.73206 5.99871 6.55039 6.15975 6.38874L2.33625 2.5752C2.04136 2.8709 1.76753 3.19192 1.52246 3.52954L3.69001 5.10286C3.58145 5.25251 3.48018 5.40767 3.38762 5.56805Z" fill="#E6DAFE"/>
<path d="M8.82573 2.96675L9.23708 0.319802C8.8306 0.256611 8.4146 0.224609 8.0004 0.224609H7.99414V5.62504H8.0004C8.22807 5.62504 8.45328 5.65422 8.67 5.71174L9.36833 3.08017C9.18968 3.03278 9.00863 2.99531 8.82573 2.96675Z" fill="#E6DAFE"/>
<path d="M5.48734 7.55369L2.85617 6.85352C2.80857 7.03216 2.7709 7.21322 2.74235 7.39611L0.0957998 6.98354C0.0322033 7.39147 0 7.80908 0 8.22451H5.40042C5.40042 7.99645 5.42964 7.77062 5.48734 7.55369Z" fill="#E6DAFE"/>
<path d="M12.7073 10.6145L15.1334 11.8498C15.3232 11.4769 15.4848 11.086 15.6134 10.6878L13.0228 9.8501C12.9381 10.112 12.8322 10.3692 12.7073 10.6145Z" fill="#E6DAFE"/>
<path d="M10.6464 12.791L9.30256 10.4756C9.1063 10.5894 8.89629 10.6769 8.67773 10.7356L9.37326 13.321C9.19602 13.3686 9.01636 13.4079 8.83553 13.4365L9.26265 16.1253C9.67606 16.0597 10.0868 15.9606 10.4838 15.8312L9.65275 13.2843C9.91726 13.1981 10.1745 13.0909 10.4224 12.9641L11.6439 15.3484C12.0153 15.158 12.3746 14.9368 12.7122 14.6904L11.1072 12.4912C10.9593 12.599 10.8048 12.6988 10.6464 12.791Z" fill="#E6DAFE"/>
<path d="M3.43547 10.8732L5.75027 9.52824C5.63624 9.33216 5.54871 9.12192 5.48979 8.90381L2.90462 9.60052C2.85702 9.42349 2.81773 9.24384 2.78897 9.06318L0.100098 9.49135C0.165922 9.90454 0.265165 10.3155 0.394991 10.7127L2.94148 9.88001C3.02796 10.1443 3.13511 10.4016 3.2621 10.6495L0.878649 11.8726C1.06903 12.2436 1.29061 12.6029 1.53709 12.9403L3.73563 11.3342C3.62768 11.1864 3.52762 11.0318 3.43547 10.8732Z" fill="#E6DAFE"/>
<path d="M4.37891 15.3601C4.75217 15.5497 5.14306 15.7111 5.54087 15.8395L6.37715 13.2485C6.11545 13.164 5.85825 13.0579 5.61254 12.9331L4.37891 15.3601Z" fill="#E6DAFE"/>
<path d="M5.34569 12.839L6.70494 10.48C6.50807 10.3666 6.32658 10.2277 6.16515 10.0669L2.35303 13.892C2.64873 14.1867 2.96996 14.4603 3.30778 14.7054L4.88007 12.537C5.02997 12.6456 5.18527 12.7464 5.34569 12.839Z" fill="#E6DAFE"/>
<path d="M12.6129 10.8816L10.2546 9.521C10.1412 9.71765 10.0018 9.89932 9.84082 10.0609L13.6641 13.8747C13.959 13.579 14.2328 13.258 14.4779 12.9204L12.3103 11.3471C12.4189 11.1974 12.5204 11.042 12.6129 10.8816Z" fill="#E6DAFE"/>
<path d="M7.33066 10.7373L6.63232 13.3689C6.81097 13.4162 6.99203 13.4537 7.17492 13.4823L6.76379 16.1292C7.17028 16.1924 7.58627 16.2244 8.00047 16.2244H8.00673V10.824H8.00047C7.7728 10.824 7.54737 10.7948 7.33066 10.7373Z" fill="#E6DAFE"/>
<path d="M10.5998 8.2251C10.5998 8.45316 10.5704 8.67877 10.5127 8.89587L13.1438 9.59605C13.1915 9.4174 13.2291 9.23634 13.2577 9.05345L15.9044 9.46624C15.968 9.05831 16.0002 8.6407 16.0002 8.22527L10.5998 8.2251Z" fill="#E6DAFE"/>
</svg>
