<svg width="24" height="24" viewBox="0 0 16 17" fill="none" xmlns="http://www.w3.org/2000/svg">
<path d="M12.1151 5.44239C11.8225 5.27254 11.4465 5.27254 11.1125 5.44239L8.77301 6.84413L7.18554 7.73631L4.88779 9.13803C4.59523 9.30815 4.2195 9.30815 3.88521 9.13803L2.08889 8.0336C1.79633 7.86375 1.58747 7.52379 1.58747 7.1417V5.01764C1.58747 4.67768 1.75461 4.33797 2.08889 4.12546L3.88521 3.06344C4.17752 2.89359 4.55351 2.89359 4.88779 3.06344L6.68411 4.16785C6.97668 4.33797 7.18554 4.67767 7.18554 5.06003V6.46203L8.77301 5.52746V4.08306C8.77301 3.74309 8.60587 3.40339 8.27158 3.19088L4.92952 1.19428C4.63721 1.02443 4.26122 1.02443 3.92694 1.19428L0.50144 3.23354C0.167157 3.40339 0 3.74309 0 4.08306V8.07626C0 8.41597 0.167157 8.75594 0.50144 8.96819L3.88521 10.9648C4.17752 11.1346 4.55351 11.1346 4.88779 10.9648L7.18554 9.60545L8.77301 8.67088L11.0705 7.31154C11.363 7.14169 11.7391 7.14169 12.0731 7.31154L13.8697 8.37357C14.162 8.54342 14.3708 8.8834 14.3708 9.26549V11.3895C14.3708 11.7295 14.2037 12.0692 13.8697 12.2817L12.1151 13.3438C11.8225 13.5136 11.4465 13.5136 11.1125 13.3438L9.31589 12.2817C9.02358 12.1116 8.81473 11.7719 8.81473 11.3895V10.0302L7.22726 10.9648V12.3665C7.22726 12.7065 7.39441 13.0462 7.72843 13.2587L11.1125 15.2553C11.4048 15.4251 11.7808 15.4251 12.1151 15.2553L15.4988 13.2587C15.7911 13.0889 16 12.7489 16 12.3665V8.33091C16 7.99121 15.8331 7.65125 15.4988 7.439L12.1151 5.44239Z" fill="#E6DAFE"/>
</svg>
