<svg width="24" height="24" viewBox="0 0 16 17" fill="none" xmlns="http://www.w3.org/2000/svg">
<path fill-rule="evenodd" clip-rule="evenodd" d="M14.2375 7.47022C14.2672 7.71777 14.2826 7.96868 14.2826 8.22428C14.2826 11.694 11.4694 14.5072 7.99969 14.5072C5.47308 14.5072 3.29492 13.0152 2.29733 10.8646L3.30233 10.3587C4.11426 12.1427 5.91167 13.3824 7.99969 13.3824C10.8485 13.3824 13.1578 11.0731 13.1578 8.22428C13.1578 8.17115 13.1565 8.11868 13.1552 8.06621L14.2375 7.47022ZM7.99969 1.94141C10.646 1.94141 12.9103 3.57804 13.8359 5.89411L12.7609 6.23651C11.9827 4.37451 10.1442 3.06546 7.99969 3.06546C5.15086 3.06546 2.84154 5.37479 2.84154 8.22362C2.84154 8.2586 2.84154 8.29426 2.84288 8.32922L1.7908 9.1896C1.74236 8.87478 1.7168 8.55189 1.7168 8.22362C1.7168 4.75458 4.52998 1.94141 7.99969 1.94141Z" fill="#E6DAFE"/>
<path fill-rule="evenodd" clip-rule="evenodd" d="M1 10.7377L7.14565 5.71143L6.89071 7.80078L10.4775 5.76861L10.2958 7.7537L15 6.25496L8.61951 9.76974L9.09577 7.76984L5.40945 9.93051L5.65297 8.39612L1 10.7377Z" fill="#E6DAFE"/>
</svg>
