<svg width="24" height="24" viewBox="0 0 16 17" fill="none" xmlns="http://www.w3.org/2000/svg">
<path fill-rule="evenodd" clip-rule="evenodd" d="M7.99992 16.2246C12.3551 16.2246 15.8856 12.6429 15.8856 8.22461C15.8856 3.80633 12.3551 0.224609 7.99992 0.224609C3.64479 0.224609 0.114258 3.80633 0.114258 8.22461C0.114258 12.6429 3.64479 16.2246 7.99992 16.2246ZM4.94566 10.6246C4.46631 10.6246 4.07357 10.5001 3.76743 10.2513C3.46532 9.99794 3.31426 9.63795 3.31426 9.17127C3.31426 9.0735 3.32434 8.95348 3.34446 8.81125C3.39685 8.49128 3.47137 8.10681 3.56804 7.65793C3.84195 6.43572 4.5489 5.82461 5.68888 5.82461C5.99904 5.82461 6.27698 5.88238 6.52271 5.99792C6.76844 6.10902 6.96178 6.27793 7.10276 6.50461C7.24374 6.72681 7.31426 6.99349 7.31426 7.30459C7.31426 7.39793 7.30418 7.51571 7.28402 7.65793C7.22361 8.05348 7.15109 8.43795 7.0665 8.81125C6.92552 9.42016 6.68182 9.87572 6.33539 10.1779C5.98896 10.4757 5.52574 10.6246 4.94566 10.6246ZM5.03025 9.6646C5.25586 9.6646 5.44717 9.59127 5.60428 9.4446C5.76542 9.29794 5.88022 9.0735 5.94868 8.77128C6.04132 8.35349 6.11185 7.98903 6.16018 7.67793C6.17628 7.5846 6.18433 7.48906 6.18433 7.39125C6.18433 6.98681 5.99299 6.78458 5.61034 6.78458C5.38473 6.78458 5.19139 6.85791 5.03025 7.00458C4.87317 7.15128 4.76037 7.37572 4.69191 7.67793C4.61939 7.97571 4.54687 8.34017 4.47439 8.77128C4.45826 8.86014 4.4502 8.95348 4.4502 9.05126C4.4502 9.46017 4.64358 9.6646 5.03025 9.6646ZM7.3395 10.5765C7.36769 10.6085 7.40768 10.6245 7.4594 10.6245H8.4186C8.46559 10.6245 8.51028 10.6085 8.5526 10.5765C8.59489 10.5445 8.62075 10.5034 8.63019 10.4531L8.95461 8.95136H9.90674C10.5227 8.95136 11.007 8.82565 11.3597 8.57422C11.717 8.3228 11.9544 7.93422 12.072 7.40849C12.1002 7.28508 12.1143 7.1662 12.1143 7.05193C12.1143 6.65422 11.9544 6.35024 11.6347 6.13993C11.3197 5.92965 10.9012 5.82451 10.3793 5.82451H8.50321C8.45619 5.82451 8.41154 5.84052 8.36921 5.87249C8.32689 5.90451 8.30103 5.94566 8.29163 5.99594L7.31834 10.4531C7.30894 10.4988 7.31597 10.5399 7.3395 10.5765ZM10.471 7.84735C10.3252 7.95249 10.1536 8.00508 9.95613 8.00508H9.14503L9.41303 6.77766H10.2594C10.4522 6.77766 10.5885 6.81421 10.6685 6.88737C10.7484 6.95593 10.7884 7.0565 10.7884 7.18908C10.7884 7.2485 10.7813 7.31706 10.7672 7.39479C10.7202 7.59136 10.6214 7.74222 10.471 7.84735Z" fill="#E6DAFE"/>
</svg>
