<svg width="24" height="24" viewBox="0 0 16 17" fill="none" xmlns="http://www.w3.org/2000/svg">
<path d="M15.2744 8.22167C15.2744 9.26168 15.2744 10.3017 15.2744 11.3417C15.2744 12.0094 14.9789 12.5117 14.4057 12.8426C12.5503 13.9004 10.6889 14.9581 8.82159 16.004C8.23068 16.3349 7.63976 16.2758 7.05476 15.9449C5.78429 15.224 4.51383 14.5031 3.24337 13.7822C2.69973 13.4749 2.15018 13.1676 1.60654 12.8544C1.03926 12.5294 0.726074 12.039 0.726074 11.3712C0.726074 9.27941 0.726074 7.18757 0.726074 5.09574C0.726074 4.45164 0.997895 3.94936 1.55335 3.63618C3.42655 2.56072 5.30566 1.49707 7.18476 0.445247C7.74022 0.132062 8.32522 0.161608 8.87477 0.474792C10.7184 1.5148 12.5621 2.56072 14.3998 3.61254C14.973 3.94346 15.2744 4.43982 15.2744 5.10755C15.2744 6.14165 15.2744 7.18166 15.2744 8.22167ZM14.1044 8.16258C14.0157 8.20394 13.9744 8.22167 13.933 8.24531C13.4366 8.55258 12.8989 8.68258 12.308 8.67667C9.4716 8.66486 6.6293 8.6944 3.79292 8.65895C3.06609 8.64713 2.54018 8.91895 2.1029 9.43895C1.99063 9.57486 1.91381 9.78168 1.90199 9.95896C1.87245 10.4081 1.89608 10.8631 1.89017 11.3121C1.89017 11.5603 1.98472 11.7376 2.20927 11.8617C4.02928 12.8899 5.84339 13.924 7.6634 14.9581C7.88795 15.0881 8.10659 15.0881 8.33113 14.9522C8.54977 14.8222 8.77432 14.704 8.99887 14.574C10.5766 13.6758 12.1543 12.7776 13.738 11.8853C13.9389 11.7731 14.0984 11.6372 14.0984 11.389C14.1044 10.3312 14.1044 9.2735 14.1044 8.16258ZM1.89608 7.9794C2.22109 7.84349 2.49291 7.68394 2.79427 7.61303C3.10155 7.53621 3.43246 7.51257 3.75155 7.51257C5.4002 7.50076 7.04885 7.50666 8.6975 7.50666C9.98569 7.50666 11.268 7.50666 12.5562 7.50666C13.1057 7.50666 13.4603 7.14621 13.8444 6.8153C14.128 6.57302 14.1103 6.27165 14.1044 5.95847C14.0984 5.68074 14.0984 5.40892 14.1044 5.13119C14.1103 4.88892 14.0098 4.72346 13.7971 4.60528C11.9712 3.57118 10.1511 2.52526 8.31341 1.50889C8.15386 1.42025 7.86431 1.40844 7.71067 1.49707C5.8552 2.52526 4.01746 3.57118 2.17972 4.62891C2.04381 4.70573 1.9079 4.91846 1.9079 5.0721C1.88426 6.02938 1.89608 6.99257 1.89608 7.9794Z" fill="#E6DAFE"/>
<path d="M11.9773 10.3551C11.9773 10.5619 11.9773 10.7687 11.9773 10.9755C11.9714 11.6314 11.5223 12.116 10.8605 12.1396C10.3995 12.1573 9.93863 12.1573 9.47772 12.1396C8.87498 12.1219 8.43771 11.726 8.38453 11.1232C8.34316 10.6269 8.36089 10.1246 8.35498 9.62823C8.35498 9.46277 8.42589 9.38004 8.60316 9.38595C8.79817 9.39777 8.99908 9.40368 9.18817 9.38595C9.48362 9.35641 9.56635 9.48641 9.54863 9.75823C9.5309 10.0832 9.55453 10.4082 9.54272 10.7273C9.53681 10.9223 9.61363 10.9932 9.80272 10.9814C10.045 10.9696 10.2932 10.9696 10.5355 10.9814C10.7482 10.9932 10.8073 10.8987 10.8014 10.7037C10.7895 10.3432 10.8014 9.97687 10.7955 9.61641C10.7955 9.45686 10.8545 9.38595 11.02 9.38595C11.2564 9.39186 11.4927 9.39186 11.7232 9.38595C11.9005 9.38004 11.9714 9.44505 11.9655 9.62232C11.9714 9.86459 11.9773 10.1128 11.9773 10.3551Z" fill="#E6DAFE"/>
<path d="M5.81378 12.1631C5.49469 12.1395 5.16378 12.1454 4.85059 12.0745C4.35422 11.9622 4.03513 11.5368 4.02922 11.0227C4.02331 10.5736 4.03513 10.1186 4.02331 9.66948C4.0174 9.45675 4.0824 9.3563 4.30695 9.37402C4.50195 9.38584 4.69695 9.38584 4.89786 9.37402C5.12241 9.3563 5.21696 9.43312 5.20514 9.66948C5.18741 10.024 5.20514 10.3727 5.19923 10.7272C5.19332 10.9045 5.26423 10.9754 5.44151 10.9695C5.6956 10.9636 5.94969 10.9577 6.20378 10.9695C6.39879 10.9754 6.46379 10.8927 6.45788 10.7095C6.45197 10.3549 6.46379 10.0063 6.45788 9.65175C6.45197 9.45675 6.52879 9.36221 6.73561 9.37402C6.94833 9.38584 7.16697 9.38584 7.3797 9.37402C7.56289 9.36221 7.65743 9.42721 7.65152 9.62221C7.6397 10.1245 7.66334 10.6209 7.61607 11.1172C7.56289 11.7318 7.10788 12.1159 6.48742 12.1336C6.26288 12.1395 6.03833 12.1336 5.80787 12.1336C5.81378 12.1513 5.81378 12.1572 5.81378 12.1631Z" fill="#E6DAFE"/>
<path d="M5.84344 4.07915C6.09162 4.07915 6.3339 4.07915 6.58208 4.07915C7.09618 4.08506 7.563 4.44552 7.61027 4.9537C7.66345 5.49734 7.65163 6.0528 7.64573 6.59644C7.64573 6.67326 7.498 6.79735 7.40936 6.80917C7.19072 6.83872 6.96027 6.81508 6.73572 6.82099C6.53481 6.82099 6.45799 6.72054 6.4639 6.52553C6.46981 6.16508 6.45799 5.79871 6.4639 5.43825C6.4639 5.26689 6.40481 5.18416 6.22162 5.19007C5.95571 5.20189 5.6898 5.19598 5.42389 5.19007C5.25843 5.18416 5.19934 5.26098 5.19934 5.42053C5.20525 5.80462 5.19343 6.18871 5.20525 6.5669C5.21116 6.74417 5.13434 6.82099 4.96298 6.81508C4.94525 6.81508 4.92161 6.81508 4.90389 6.81508C3.82251 6.80326 4.05888 6.93917 4.02933 5.9878C4.02343 5.70416 4.02343 5.42053 4.02933 5.13098C4.04706 4.53415 4.51388 4.07915 5.1048 4.07324C5.35298 4.07324 5.59526 4.07915 5.84344 4.07915Z" fill="#E6DAFE"/>
<path d="M10.1866 4.0796C10.423 4.0796 10.6594 4.0796 10.8957 4.0796C11.4925 4.08551 11.9594 4.54051 11.9712 5.13734C11.983 5.61007 11.9653 6.0828 11.9771 6.54962C11.983 6.73871 11.9062 6.80962 11.723 6.82144C10.8012 6.89826 10.8012 6.90417 10.8012 5.98234C10.8012 5.19643 10.8012 5.19643 10.0212 5.19643C9.54844 5.19643 9.54844 5.19643 9.54844 5.67507C9.54844 5.95871 9.54253 6.24235 9.54844 6.53189C9.55434 6.75053 9.4598 6.82735 9.25298 6.82735C8.17752 6.80962 8.36661 6.96326 8.34888 5.95871C8.34297 5.64552 8.35479 5.33234 8.38434 5.01915C8.44343 4.4637 8.88661 4.08551 9.44798 4.08551C9.69616 4.07369 9.94435 4.0796 10.1866 4.0796Z" fill="#E6DAFE"/>
</svg>
