<svg width="24" height="24" viewBox="0 0 16 17" fill="none" xmlns="http://www.w3.org/2000/svg">
<path d="M7.9968 0.230957C3.58257 0.230957 0 3.81352 0 8.22776C0 8.70757 0.0447821 9.17458 0.121551 9.6288H1.90004C2.12395 9.6288 2.26469 9.55203 2.34786 9.41128L2.97481 8.3749L3.77449 10.8507C3.85126 11.1002 4.03679 11.2282 4.28629 11.2346C4.54218 11.2346 4.7533 11.081 4.80448 10.8251L5.38025 8.09981L6.0072 12.4501C6.04558 12.738 6.18633 12.8787 6.47421 12.8787C6.76209 12.8787 6.89644 12.7252 6.94122 12.4373L8.22711 3.97346C8.22711 3.95427 8.23351 3.92868 8.23351 3.90949C8.23351 3.67278 8.05438 3.46806 7.81767 3.43607C7.79848 3.43607 7.77289 3.42968 7.7537 3.42968C7.51699 3.42968 7.31227 3.60881 7.27389 3.84551L6.48061 9.27054L5.94962 5.64959C5.91763 5.3745 5.70652 5.20177 5.46981 5.19537C5.20752 5.18897 5.01559 5.35531 4.96441 5.6304L4.19672 9.17458L3.58896 7.27454C3.53778 7.06982 3.36505 6.91628 3.15394 6.89069C2.87885 6.85871 2.71891 6.99945 2.59736 7.19137L1.65054 8.68198H1.08756C1.08117 8.53484 1.06837 8.38769 1.06837 8.24055C1.06837 4.42128 4.16473 1.32492 7.98401 1.32492C11.0676 1.32492 13.6777 3.34011 14.567 6.123H15.6929C14.7653 2.73236 11.6625 0.243752 7.98401 0.243752L7.9968 0.230957Z" fill="#E6DAFE"/>
<path d="M15.8722 6.82656H14.0937C13.8698 6.82656 13.7291 6.90333 13.6459 7.04407L13.0189 8.08046L12.2193 5.60465C12.1425 5.35515 11.957 5.2272 11.7075 5.2208C11.4516 5.2208 11.2405 5.37434 11.1893 5.63024L10.6135 8.35555L9.98016 4.00529C9.94177 3.7174 9.80103 3.57666 9.51315 3.57666C9.22526 3.57666 9.09091 3.7302 9.04613 4.01808L7.76025 12.4819C7.72186 12.7442 7.90739 12.9873 8.16968 13.0257C8.18888 13.0257 8.21447 13.0321 8.23366 13.0321C8.47036 13.0321 8.67508 12.853 8.71347 12.6162L9.50675 7.19121L10.0377 10.8122C10.0697 11.0873 10.2808 11.26 10.5111 11.2664C10.7734 11.2728 10.9654 11.1064 11.0229 10.8314L11.7906 7.28718L12.3984 9.18722C12.4496 9.39193 12.6287 9.54547 12.8334 9.57106C13.1085 9.60305 13.2684 9.46231 13.3836 9.27038L14.3304 7.77978H14.8998C14.9126 7.92692 14.919 8.07406 14.919 8.2212C14.919 12.0405 11.8226 15.1368 8.00335 15.1368C4.91978 15.1368 2.30963 13.1216 1.42038 10.3388H0.294434C1.22206 13.7294 4.32482 16.218 8.00335 16.218C12.4176 16.218 16.0002 12.6354 16.0002 8.2212C16.0002 7.74139 15.9554 7.27438 15.8786 6.82016L15.8722 6.82656Z" fill="#E6DAFE"/>
</svg>
